<?xml version="1.0" encoding="utf-8"?>
<!-- Generator: Adobe Illustrator 18.1.1, SVG Export Plug-In . SVG Version: 6.00 Build 0)  -->
<svg version="1.1" xmlns="http://www.w3.org/2000/svg" xmlns:xlink="http://www.w3.org/1999/xlink" x="0px" y="0px" width="190.8px"
	 height="66.7px" viewBox="0 0 190.8 66.7" enable-background="new 0 0 190.8 66.7" xml:space="preserve">
<g id="list">
</g>
<g id="stars">
</g>
<g id="test">
</g>
<g id="originals">
	<path fill="#FFFFFF" d="M160.9,15.3c-3.2,0-6.3,0.5-9.2,1.3c-4.6-7.5-14-12.7-25-12.7c-15.4,0-27.9,10.2-27.9,22.8
		c0,5.3,2.2,10.1,5.9,14l0.7,11.8c0,0.4,0.2,0.7,0.4,0.9c0.3,0.1,0.6,0.1,1-0.1l9.1-5.5c3.3,1.1,7,1.8,10.8,1.8
		c3.2,0,6.3-0.5,9.2-1.3c4.6,7.5,14,12.7,25,12.7c3.8,0,7.5-0.6,10.8-1.8l9.1,5.5c0.3,0.2,0.7,0.3,1,0.1s0.4-0.4,0.4-0.9l0.7-11.8
		c3.7-3.9,5.9-8.7,5.9-14C188.8,25.5,176.3,15.3,160.9,15.3z"/>
	<path opacity="0.3" fill="#FCC941" d="M152.3,16.3c-0.2,0.1-0.4,0.1-0.7,0.2c-0.1-0.1-0.2-0.2-0.2-0.4c-6.2,2.2-12.5,5.9-15.3,12
		c-3,6.5-3.3,13.5-0.7,20.1c0.2,0,0.3-0.1,0.5-0.1c0,0,0,0,0,0c4.6-1.4,8.7-2.9,12.3-6.4c3.1-3.1,5.5-7.1,6.2-11.5
		C154.7,25.6,153.4,20.9,152.3,16.3z"/>
	<path fill="none" stroke="#FCC941" stroke-width="2" stroke-miterlimit="10" d="M133,38c0,12.6,12.5,22.8,27.9,22.8
		c3.8,0,7.5-0.6,10.8-1.8l9.1,5.5c0.3,0.2,0.7,0.3,1,0.1c0.3-0.1,0.4-0.4,0.4-0.9l0.7-11.8c3.7-3.9,5.9-8.7,5.9-14
		c0-12.6-12.5-22.8-27.9-22.8S133,25.5,133,38z"/>
	<path fill="#FFFFFF" d="M63.4,62.4H4.7c-1.7,0-3-1.4-3-3V4.9c0-1.7,1.4-3,3-3h58.7c1.7,0,3,1.3,3,3v54.5
		C66.4,61,65.1,62.4,63.4,62.4z"/>
	<rect x="14.1" y="39" opacity="0.3" fill="#FCC941" width="39.7" height="11.7"/>
	<path opacity="0.3" fill="#FCC941" d="M66.4,13V4.7c0-1.5-1.4-2.8-3-2.8H4.7c-1.7,0-3,1.3-3,2.8V13H66.4z"/>
	<path fill="none" stroke="#FCC941" stroke-width="2" stroke-miterlimit="10" d="M63.4,62.4H4.7c-1.7,0-3-1.4-3-3V4.9
		c0-1.7,1.4-3,3-3h58.7c1.7,0,3,1.3,3,3v54.5C66.4,61,65.1,62.4,63.4,62.4z"/>
	<line fill="none" stroke="#FCC941" stroke-width="2" stroke-miterlimit="10" x1="1.7" y1="13.4" x2="66.4" y2="13.4"/>
	<line fill="none" stroke="#FCC941" stroke-width="2" stroke-miterlimit="10" x1="14.1" y1="13.4" x2="14.1" y2="62.4"/>
	<line fill="none" stroke="#FCC941" stroke-width="2" stroke-miterlimit="10" x1="66.4" y1="26.2" x2="2.3" y2="26.2"/>
	<line fill="none" stroke="#FCC941" stroke-width="2" stroke-miterlimit="10" x1="66.4" y1="39" x2="2.3" y2="39"/>
	<line fill="none" stroke="#FCC941" stroke-width="2" stroke-miterlimit="10" x1="66.4" y1="50.7" x2="2.3" y2="50.7"/>
	<line fill="none" stroke="#FCC941" stroke-width="2" stroke-miterlimit="10" x1="26.8" y1="13.8" x2="26.8" y2="62"/>
	<line fill="none" stroke="#FCC941" stroke-width="2" stroke-miterlimit="10" x1="40.3" y1="13.4" x2="40.3" y2="62.4"/>
	<line fill="none" stroke="#FCC941" stroke-width="2" stroke-miterlimit="10" x1="53.8" y1="13.8" x2="53.8" y2="62"/>
	<path fill="none" stroke="#FCC941" stroke-width="2" stroke-miterlimit="10" d="M126.7,3.9c-15.4,0-27.9,10.2-27.9,22.8
		c0,5.3,2.2,10.1,5.9,14l0.7,11.8c0,0.4,0.2,0.7,0.4,0.9c0.3,0.1,0.6,0.1,1-0.1l9.1-5.5c3.3,1.1,7,1.8,10.8,1.8
		c15.4,0,27.9-10.2,27.9-22.8C154.6,14.1,142.1,3.9,126.7,3.9z"/>
</g>
<g id="Layer_5">
</g>
</svg>
