<?xml version="1.0" encoding="iso-8859-1"?>
<!-- Generator: Adobe Illustrator 18.0.0, SVG Export Plug-In . SVG Version: 6.00 Build 0)  -->
<!DOCTYPE svg PUBLIC "-//W3C//DTD SVG 1.1//EN" "http://www.w3.org/Graphics/SVG/1.1/DTD/svg11.dtd">
<svg version="1.1" id="Capa_1" xmlns="http://www.w3.org/2000/svg" xmlns:xlink="http://www.w3.org/1999/xlink" x="0px" y="0px"
	 viewBox="0 0 489.886 489.886" style="enable-background:new 0 0 489.886 489.886;" xml:space="preserve">
<g>
	<path d="M334.62,258.646c33.627,0,60.984-27.358,60.984-60.985c0-33.627-27.357-60.984-60.984-60.984
		c-33.627,0-60.984,27.357-60.984,60.984C273.635,231.289,300.993,258.646,334.62,258.646z M334.62,162.677
		c19.29,0,34.984,15.694,34.984,34.984c0,19.291-15.694,34.985-34.984,34.985c-19.29,0-34.984-15.694-34.984-34.985
		C299.635,178.371,315.33,162.677,334.62,162.677z"/>
	<path d="M334.62,111.874c7.18,0,13-5.82,13-13V70.195c0-7.18-5.82-13-13-13c-7.18,0-13,5.82-13,13v28.679
		C321.62,106.054,327.44,111.874,334.62,111.874z"/>
	<path d="M321.62,296.449v28.679c0,7.18,5.82,13,13,13c7.18,0,13-5.82,13-13v-28.679c0-7.18-5.82-13-13-13
		C327.44,283.449,321.62,289.27,321.62,296.449z"/>
	<path d="M420.406,197.662c0,7.18,5.82,13,13,13h28.679c7.18,0,13-5.82,13-13c0-7.18-5.82-13-13-13h-28.679
		C426.226,184.662,420.406,190.482,420.406,197.662z"/>
	<path d="M207.153,210.662h28.679c7.18,0,13-5.82,13-13c0-7.18-5.82-13-13-13h-28.679c-7.18,0-13,5.82-13,13
		C194.153,204.841,199.973,210.662,207.153,210.662z"/>
	<path d="M395.278,258.324c-5.076,5.077-5.075,13.308,0.002,18.385l20.28,20.278c2.538,2.538,5.864,3.807,9.191,3.807
		c3.327,0,6.654-1.27,9.193-3.808c5.076-5.077,5.075-13.308-0.002-18.385l-20.28-20.278
		C408.586,253.247,400.356,253.247,395.278,258.324z"/>
	<path d="M255.569,137.013c2.539,2.538,5.865,3.807,9.192,3.807c3.327,0,6.654-1.27,9.192-3.808c5.077-5.077,5.076-13.308,0-18.385
		l-20.28-20.278c-5.078-5.076-13.309-5.076-18.385,0.001c-5.077,5.077-5.076,13.308,0,18.385L255.569,137.013z"/>
	<path d="M255.573,258.332l-20.278,20.279c-5.077,5.077-5.077,13.308,0,18.385c2.539,2.539,5.865,3.808,9.192,3.808
		c3.327,0,6.654-1.27,9.192-3.808l20.278-20.279c5.077-5.077,5.077-13.308,0-18.385
		C268.879,253.254,260.649,253.255,255.573,258.332z"/>
	<path d="M404.461,140.815c3.327,0,6.654-1.27,9.193-3.808l20.277-20.28c5.076-5.077,5.075-13.308-0.002-18.385
		c-5.076-5.076-13.307-5.076-18.385,0.001l-20.277,20.28c-5.076,5.077-5.075,13.308,0.002,18.385
		C397.808,139.546,401.134,140.815,404.461,140.815z"/>
	<path d="M476.886,406.69c-20.398,0-29.954-4.138-41.019-8.93c-11.982-5.189-25.564-11.07-51.35-11.07
		c-25.786,0-39.367,5.881-51.35,11.071c-11.065,4.792-20.62,8.93-41.019,8.93c-20.397,0-29.952-4.138-41.016-8.929
		c-11.982-5.189-25.563-11.071-51.348-11.071c-25.784,0-39.365,5.881-51.347,11.071c-11.063,4.791-20.618,8.929-41.015,8.929
		c-11.446,0-19.477-1.303-26.277-3.294c-10.959-33.415-9.115-70.971,5.494-111.691c6.271-17.478,13.729-31.955,19.257-41.571
		c12.919,13.711,31.701,38.909,22.109,61.822c-2.771,6.623,0.35,14.239,6.973,17.012c1.64,0.686,3.341,1.012,5.014,1.012
		c5.084,0,9.912-3.001,11.998-7.983c12.594-30.085-2.556-59.304-17.798-78.783c14.321,2.914,32.549,11.574,50.432,33.86
		c2.568,3.2,6.341,4.864,10.147,4.864c2.854,0,5.729-0.936,8.128-2.861c5.6-4.493,6.497-12.675,2.004-18.275
		c-25.56-31.853-52.87-41.51-71.279-44.002c-7.192-0.974-13.61-0.97-18.974-0.536c-1.456-6.717-4.181-15.258-9.283-24.131
		c-9.943-17.289-31.003-38.968-74.867-44.068c-7.139-0.825-13.585,4.279-14.415,11.412c-0.829,7.131,4.28,13.585,11.411,14.415
		c26.096,3.034,44.526,13.218,54.781,30.267c0.796,1.324,1.51,2.642,2.155,3.944c-2.56-0.698-5.259-1.339-8.081-1.879
		c-26.481-5.073-51.166,0.646-71.385,16.533c-5.646,4.436-6.627,12.608-2.191,18.254c2.565,3.264,6.378,4.969,10.231,4.969
		c2.81,0,5.642-0.907,8.022-2.778c23.104-18.153,48.725-13.291,63.412-7.929c-6.173,10.527-14.737,26.836-22.008,46.918
		c-13.884,38.349-17.596,75.788-11.054,109.69c-9.115-2.941-20.386-5.188-36.319-5.188c-7.18,0-13,5.82-13,13c0,7.18,5.82,13,13,13
		c20.396,0,29.952,4.138,41.016,8.93c11.982,5.189,25.563,11.07,51.347,11.07s39.365-5.881,51.347-11.071
		c11.064-4.791,20.618-8.929,41.015-8.929s29.951,4.138,41.016,8.929c11.981,5.19,25.562,11.071,51.348,11.071
		c25.786,0,39.368-5.882,51.351-11.071c11.065-4.792,20.62-8.93,41.018-8.93c20.397,0,29.953,4.138,41.018,8.929
		c11.982,5.189,25.564,11.071,51.351,11.071c7.18,0,13-5.82,13-13C489.886,412.511,484.066,406.69,476.886,406.69z"/>
</g>
<g>
</g>
<g>
</g>
<g>
</g>
<g>
</g>
<g>
</g>
<g>
</g>
<g>
</g>
<g>
</g>
<g>
</g>
<g>
</g>
<g>
</g>
<g>
</g>
<g>
</g>
<g>
</g>
<g>
</g>
</svg>
